<?xml version="1.0" standalone="no"?><!-- Generator: Gravit.io --><svg xmlns="http://www.w3.org/2000/svg" xmlns:xlink="http://www.w3.org/1999/xlink" style="isolation:isolate" viewBox="435 1440 90 90" width="90" height="90"><g id="Group"><path d=" M 435 1485 C 435 1460.164 455.164 1440 480 1440 C 504.836 1440 525 1460.164 525 1485 C 525 1509.836 504.836 1530 480 1530 C 455.164 1530 435 1509.836 435 1485 Z " fill="rgb(22,21,41)"/><g id="Group"><path d=" M 498.837 1467.209 C 498.837 1469.81 496.727 1471.919 494.128 1471.919 C 488.436 1471.919 488.445 1465.64 483.14 1465.64 C 485.625 1464.26 490.493 1462.5 494.128 1462.5 C 496.727 1462.5 498.837 1464.609 498.837 1467.209 Z  M 500.893 1480.967 C 499.47 1480.607 492.906 1479.165 492.906 1479.165 C 492.906 1479.165 486.721 1471.078 485.825 1469.726 C 484.892 1468.321 483.585 1467.83 482.137 1467.83 C 480.658 1467.83 478.077 1469.769 475.812 1471.439 C 473.68 1473.004 471.584 1474.618 469.525 1476.279 C 468.882 1476.807 467.442 1478.299 467.442 1480.727 C 467.442 1483.156 471.21 1485.087 473.202 1486.328 C 475.284 1487.625 478.52 1489.659 478.52 1489.659 L 477.059 1500.777 C 477.059 1500.777 477.044 1502.967 478.961 1503.223 C 480.879 1503.479 481.466 1501.442 481.466 1501.442 C 481.466 1501.442 483.358 1491.253 483.622 1489.605 C 483.895 1487.908 484.299 1486.78 482.343 1485.387 C 480.414 1484.013 477.042 1482.192 477.042 1482.192 C 477.042 1482.192 483.47 1477.219 483.895 1476.981 C 484.378 1476.708 484.77 1476.226 485.252 1476.86 C 485.75 1477.511 488.703 1481.26 488.964 1481.586 C 489.226 1481.913 489.597 1482.364 490.828 1482.665 C 492.501 1483.074 499.189 1484.657 500.074 1484.86 C 501.432 1485.171 502.47 1484.684 502.789 1483.666 C 503.132 1482.57 502.315 1481.327 500.893 1480.967 Z " fill="rgb(0,184,169)"/><path d=" M 486.279 1498.081 C 486.279 1492.883 490.499 1488.663 495.698 1488.663 C 500.896 1488.663 505.116 1492.883 505.116 1498.081 C 505.116 1503.28 500.896 1507.5 495.698 1507.5 C 490.499 1507.5 486.279 1503.28 486.279 1498.081 Z " fill="none" vector-effect="non-scaling-stroke" stroke-width="2.093" stroke="rgb(0,184,169)" stroke-linejoin="miter" stroke-linecap="round" stroke-miterlimit="10"/><path d=" M 454.884 1498.081 C 454.884 1492.883 459.104 1488.663 464.302 1488.663 C 469.501 1488.663 473.721 1492.883 473.721 1498.081 C 473.721 1503.28 469.501 1507.5 464.302 1507.5 C 459.104 1507.5 454.884 1503.28 454.884 1498.081 Z " fill="none" vector-effect="non-scaling-stroke" stroke-width="2.093" stroke="rgb(0,184,169)" stroke-linejoin="miter" stroke-linecap="round" stroke-miterlimit="10"/></g></g></svg>