<?xml version="1.0" standalone="no"?><!-- Generator: Gravit.io --><svg xmlns="http://www.w3.org/2000/svg" xmlns:xlink="http://www.w3.org/1999/xlink" style="isolation:isolate" viewBox="915 1440 90 90" width="90" height="90"><g id="Group"><path d=" M 915 1485 C 915 1460.164 935.164 1440 960 1440 C 984.836 1440 1005 1460.164 1005 1485 C 1005 1509.836 984.836 1530 960 1530 C 935.164 1530 915 1509.836 915 1485 Z " fill="rgb(22,21,41)"/><path d=" M 976.942 1462.5 C 974.003 1462.5 971.625 1464.907 971.625 1467.88 C 971.625 1470.854 974.003 1473.261 976.942 1473.261 C 979.881 1473.261 982.259 1470.854 982.259 1467.88 C 982.259 1464.907 979.881 1462.5 976.942 1462.5 Z  M 960.719 1465.374 C 959.53 1465.389 958.354 1465.767 957.516 1466.566 L 949.269 1474.79 C 948.7 1475.352 948.383 1476.125 948.393 1476.929 C 948.397 1477.747 948.718 1478.504 949.299 1479.07 C 950.432 1480.173 952.222 1480.211 953.377 1479.13 L 960.507 1472.466 L 964.556 1475.524 L 962.199 1478.335 C 965.779 1478.848 968.966 1480.582 971.323 1483.135 L 973.558 1479.986 C 975.157 1477.776 974.714 1474.678 972.562 1473.016 L 964.042 1466.413 C 963.132 1465.706 961.908 1465.358 960.719 1465.373 L 960.719 1465.374 Z  M 960.024 1480.109 C 958.585 1480.109 957.187 1480.327 955.885 1480.75 C 955.241 1480.966 954.615 1481.232 954.012 1481.546 C 953.71 1481.698 953.393 1481.859 953.106 1482.035 C 951.381 1483.083 949.906 1484.502 948.785 1486.192 C 948.619 1486.445 948.483 1486.692 948.332 1486.957 L 942.531 1486.957 C 942 1486.983 941.584 1487.442 941.61 1487.981 C 941.636 1488.519 942.09 1488.939 942.622 1488.913 L 953.257 1488.913 C 953.79 1488.913 954.223 1489.351 954.223 1489.891 C 954.223 1490.432 953.79 1490.87 953.257 1490.87 L 946.822 1490.87 C 946.716 1491.344 946.635 1491.824 946.58 1492.307 C 946.561 1492.475 946.561 1492.654 946.55 1492.826 L 938.664 1492.826 C 938.132 1492.853 937.716 1493.311 937.742 1493.85 C 937.768 1494.388 938.222 1494.809 938.754 1494.783 L 958.089 1494.783 C 958.623 1494.783 959.056 1495.221 959.056 1495.761 C 959.056 1496.301 958.623 1496.739 958.089 1496.739 L 946.822 1496.739 C 946.969 1497.415 947.154 1498.062 947.396 1498.696 L 943.497 1498.696 C 942.966 1498.722 942.55 1499.181 942.576 1499.72 C 942.602 1500.258 943.055 1500.679 943.588 1500.652 L 953.256 1500.652 C 953.79 1500.652 954.222 1501.09 954.222 1501.63 C 954.222 1502.171 953.79 1502.609 953.256 1502.609 L 949.66 1502.609 C 950.283 1503.354 950.982 1504.03 951.745 1504.627 C 952.126 1504.924 952.511 1505.227 952.924 1505.482 C 954.989 1506.779 957.421 1507.5 960.024 1507.5 C 965.145 1507.5 969.627 1504.604 971.927 1500.346 C 971.93 1500.339 971.923 1500.323 971.927 1500.317 C 973.002 1498.319 973.563 1496.079 973.558 1493.804 C 973.558 1491.435 972.976 1489.207 971.926 1487.262 C 971.719 1486.872 971.474 1486.525 971.232 1486.161 C 970.02 1484.347 968.396 1482.815 966.488 1481.759 C 966.482 1481.756 966.466 1481.763 966.459 1481.759 C 964.485 1480.672 962.272 1480.104 960.024 1480.109 Z  M 974.767 1489.127 C 975.228 1490.605 975.492 1492.173 975.492 1493.804 C 975.492 1498.516 973.407 1502.735 970.145 1505.605 C 970.397 1505.666 970.647 1505.696 970.9 1505.696 C 972.161 1505.696 973.388 1504.978 973.921 1503.74 L 977.576 1495.18 C 978.528 1492.968 977.546 1490.357 975.371 1489.372 L 974.767 1489.127 Z " fill="rgb(0,184,169)"/></g></svg>