<?xml version="1.0" standalone="no"?><!-- Generator: Gravit.io --><svg xmlns="http://www.w3.org/2000/svg" xmlns:xlink="http://www.w3.org/1999/xlink" style="isolation:isolate" viewBox="1395 1440 90 90" width="90" height="90"><g id="Group"><g id="Group"><path d=" M 1395 1485 C 1395 1460.164 1415.164 1440 1440 1440 C 1464.836 1440 1485 1460.164 1485 1485 C 1485 1509.836 1464.836 1530 1440 1530 C 1415.164 1530 1395 1509.836 1395 1485 Z " fill="rgb(22,21,41)"/></g><path d=" M 1459.715 1485.445 L 1455.511 1478.866 C 1455.543 1470.525 1448.881 1462.758 1437.76 1462.758 C 1426.639 1462.758 1421.129 1470.396 1420.148 1478.267 C 1419.552 1482.847 1420.768 1487.479 1423.536 1491.177 C 1425.457 1493.75 1426.683 1496.791 1426.683 1499.996 L 1426.683 1507.242 L 1446.657 1507.242 L 1446.657 1500.57 L 1451.105 1500.57 C 1453.562 1500.57 1455.554 1498.578 1455.554 1496.121 L 1455.554 1489.448 L 1458.908 1488.049 C 1459.394 1487.846 1459.764 1487.438 1459.92 1486.935 C 1460.076 1486.431 1460.001 1485.885 1459.715 1485.443 L 1459.715 1485.445 Z  M 1441.236 1491.048 C 1441.236 1491.933 1440.471 1492.647 1439.532 1492.647 C 1439.532 1493.532 1438.767 1494.244 1437.829 1494.244 C 1436.89 1494.244 1436.127 1493.532 1436.127 1492.647 C 1435.189 1492.647 1434.423 1491.935 1434.423 1491.045 L 1434.423 1489.448 L 1441.236 1489.448 L 1441.236 1491.048 Z  M 1441.096 1486.579 L 1441.096 1487.224 L 1434.423 1487.224 L 1434.423 1486.579 C 1434.423 1483.861 1431.087 1482.593 1431.087 1478.779 C 1431.087 1475.147 1434.076 1472.211 1437.76 1472.211 C 1441.443 1472.211 1444.432 1475.147 1444.432 1478.779 C 1444.432 1482.584 1441.096 1483.888 1441.096 1486.581 L 1441.096 1486.579 Z " fill="rgb(0,184,169)"/></g></svg>