<?xml version="1.0" standalone="no"?><!-- Generator: Gravit.io --><svg xmlns="http://www.w3.org/2000/svg" xmlns:xlink="http://www.w3.org/1999/xlink" style="isolation:isolate" viewBox="0 0 1000 1000" width="1000" height="1000"><defs><clipPath id="_clipPath_A2HntLUIVndDfPFBFPYodlqCyZ1op213"><rect width="1000" height="1000"/></clipPath></defs><g clip-path="url(#_clipPath_A2HntLUIVndDfPFBFPYodlqCyZ1op213)"><g id="black"><path d=" M 670.598 479.16 Q 688.414 511.275 708.687 501.245 Q 684.933 518.03 665.827 491.465 Q 660.128 495.002 656.281 511.193 Q 653.804 528.123 662.444 523.788 Q 751.2 490.533 698.594 577.942 C 727.494 496.94 684.876 536.852 649.284 545.37 Q 634.678 549.781 637.698 518.502 Q 641.524 488.619 659.158 477.015 C 653.267 472.557 651.916 463.468 656.281 455.908 C 660.955 447.812 670.426 444.517 677.418 448.554 C 684.41 452.59 686.292 462.441 681.618 470.537 C 679.014 475.047 674.922 478.067 670.598 479.16 Z " fill="rgb(0,184,169)"/><path d=" M 576.062 396.483 C 585.032 391.304 595.946 393.389 600.419 401.136 C 604.891 408.883 601.24 419.377 592.27 424.555 C 583.3 429.734 572.386 427.649 567.914 419.903 C 563.441 412.156 567.092 401.662 576.062 396.483 Z  M 652.971 455.908 Q 578.802 462.765 563.137 423.706 Q 532.047 422.873 500.73 446.253 Q 459.108 481.301 489.427 484.184 C 543.017 489.279 549.976 487.877 534.962 505.159 C 524.467 516.988 515.357 524.152 507.065 528.727 Q 522.387 526.054 538.812 516.107 C 583.067 485.952 570.472 477.18 534.962 471.067 Q 487.428 466.596 523.432 451.893 Q 549.835 444.914 563.168 451.893 Q 594.814 476.597 652.971 455.908 Z " fill-rule="evenodd" fill="rgb(34,40,49)"/><path d=" M 509.562 510.346 C 498.516 494.535 480.182 484.184 459.449 484.184 C 425.732 484.184 398.359 511.557 398.359 545.274 L 398.359 545.274 C 398.359 578.99 425.732 606.364 459.449 606.364 C 479.777 606.364 497.8 596.413 508.908 581.12 Q 502.499 580.855 499.038 581.12 C 483.565 582.304 475.141 598.69 459.449 598.69 C 429.967 598.69 406.032 574.755 406.032 545.274 L 406.032 545.274 C 406.032 515.792 429.967 491.857 459.449 491.857 C 475.582 491.857 483.956 509.14 499.852 510.346 Q 503.257 510.604 509.562 510.346 Z " fill="rgb(34,40,49)"/><path d="M 337.574 484.184 L 459.143 484.184 C 460.898 484.184 462.322 485.608 462.322 487.362 L 462.322 487.362 C 462.322 489.116 460.898 490.541 459.143 490.541 L 337.574 490.541 C 335.82 490.541 334.396 489.116 334.396 487.362 L 334.396 487.362 C 334.396 485.608 335.82 484.184 337.574 484.184 Z" style="stroke:none;fill:#222831;stroke-miterlimit:10;"/><path d="M 305.94 542.095 L 400.44 542.095 C 402.194 542.095 403.618 543.52 403.618 545.274 L 403.618 545.274 C 403.618 547.028 402.194 548.452 400.44 548.452 L 305.94 548.452 C 304.185 548.452 302.761 547.028 302.761 545.274 L 302.761 545.274 C 302.761 543.52 304.185 542.095 305.94 542.095 Z" style="stroke:none;fill:#222831;stroke-miterlimit:10;"/><path d="M 277.178 542.095 L 289.996 542.095 C 291.75 542.095 293.174 543.52 293.174 545.274 L 293.174 545.274 C 293.174 547.028 291.75 548.452 289.996 548.452 L 277.178 548.452 C 275.424 548.452 274 547.028 274 545.274 L 274 545.274 C 274 543.52 275.424 542.095 277.178 542.095 Z" style="stroke:none;fill:#222831;stroke-miterlimit:10;"/><path d="M 304.248 484.184 L 317.065 484.184 C 318.819 484.184 320.244 485.608 320.244 487.362 L 320.244 487.362 C 320.244 489.116 318.819 490.541 317.065 490.541 L 304.248 490.541 C 302.494 490.541 301.069 489.116 301.069 487.362 L 301.069 487.362 C 301.069 485.608 302.494 484.184 304.248 484.184 Z" style="stroke:none;fill:#222831;stroke-miterlimit:10;"/><path d="M 326.806 574.763 L 339.623 574.763 C 341.377 574.763 342.801 576.187 342.801 577.942 L 342.801 577.942 C 342.801 579.696 341.377 581.12 339.623 581.12 L 326.806 581.12 C 325.051 581.12 323.627 579.696 323.627 577.942 L 323.627 577.942 C 323.627 576.187 325.051 574.763 326.806 574.763 Z" style="stroke:none;fill:#222831;stroke-miterlimit:10;"/><path d="M 294.661 600.007 L 307.478 600.007 C 309.232 600.007 310.656 601.431 310.656 603.185 L 310.656 603.185 C 310.656 604.939 309.232 606.364 307.478 606.364 L 294.661 606.364 C 292.907 606.364 291.482 604.939 291.482 603.185 L 291.482 603.185 C 291.482 601.431 292.907 600.007 294.661 600.007 Z" style="stroke:none;fill:#222831;stroke-miterlimit:10;"/><path d="M 336.393 600.007 L 457.962 600.007 C 459.716 600.007 461.14 601.431 461.14 603.185 L 461.14 603.185 C 461.14 604.939 459.716 606.364 457.962 606.364 L 336.393 606.364 C 334.638 606.364 333.214 604.939 333.214 603.185 L 333.214 603.185 C 333.214 601.431 334.638 600.007 336.393 600.007 Z" style="stroke:none;fill:#222831;stroke-miterlimit:10;"/><path d="M 350.491 574.763 L 410.027 574.763 C 411.781 574.763 413.205 576.187 413.205 577.942 L 413.205 577.942 C 413.205 579.696 411.781 581.12 410.027 581.12 L 350.491 581.12 C 348.737 581.12 347.313 579.696 347.313 577.942 L 347.313 577.942 C 347.313 576.187 348.737 574.763 350.491 574.763 Z" style="stroke:none;fill:#222831;stroke-miterlimit:10;"/><path d=" M 645.477 566.102 C 645.477 543.881 663.517 525.84 685.738 525.84 C 707.959 525.84 726 543.881 726 566.102 C 726 588.323 707.959 606.364 685.738 606.364 C 663.517 606.364 645.477 588.323 645.477 566.102 Z  M 650.758 566.102 C 650.758 546.796 666.432 531.122 685.738 531.122 C 705.044 531.122 720.719 546.796 720.719 566.102 C 720.719 585.408 705.044 601.082 685.738 601.082 C 666.432 601.082 650.758 585.408 650.758 566.102 Z " fill-rule="evenodd" fill="rgb(34,40,49)"/><g transform="matrix(1.128,0,0,1.128,461.14,515.322)"><text transform="matrix(1,0,0,1,0,41.685)" style="font-family:&quot;Open Sans&quot;;font-weight:700;font-size:39px;font-style:normal;fill:#222831;stroke:none;">CO-BIKE</text></g><path d=" M 711.01 395.06 L 711.01 403.787 L 709.351 403.787 L 709.351 395.06 L 706.366 395.06 L 706.366 393.636 L 713.996 393.636 L 713.996 395.06 L 711.01 395.06 Z  M 721.404 403.787 L 719.939 403.787 L 716.995 395.31 L 716.94 395.31 L 716.94 395.31 Q 717.058 397.198 717.058 398.85 L 717.058 398.85 L 717.058 403.787 L 715.551 403.787 L 715.551 393.636 L 717.891 393.636 L 720.71 401.711 L 720.751 401.711 L 723.653 393.636 L 726 393.636 L 726 403.787 L 724.403 403.787 L 724.403 398.767 L 724.403 398.767 Q 724.403 398.01 724.441 396.795 L 724.441 396.795 L 724.441 396.795 Q 724.479 395.58 724.507 395.323 L 724.507 395.323 L 724.452 395.323 L 721.404 403.787 Z " fill-rule="evenodd" fill="rgb(34,40,49)"/></g></g></svg>